<?xml version="1.0" standalone="no"?>
<!DOCTYPE svg PUBLIC "-//W3C//DTD SVG 20010904//EN"
 "http://www.w3.org/TR/2001/REC-SVG-20010904/DTD/svg10.dtd">
<svg version="1.0" xmlns="http://www.w3.org/2000/svg"
 width="260.000000pt" height="260.000000pt" viewBox="0 0 260.000000 260.000000"
 preserveAspectRatio="xMidYMid meet">
<metadata>
Created by potrace 1.14, written by Peter Selinger 2001-2017
</metadata>
<g transform="translate(0.000000,260.000000) scale(0.100000,-0.100000)"
fill="#000000" stroke="none">
<path d="M1285 2429 c-68 -9 -113 -18 -160 -31 -22 -5 -51 -12 -64 -15 -13 -2
-34 -9 -45 -15 -12 -7 -34 -13 -50 -15 -15 -2 -42 -9 -60 -17 -17 -7 -47 -19
-66 -26 -19 -7 -44 -21 -55 -31 -26 -23 -153 -94 -185 -104 -14 -4 -38 -17
-55 -29 -16 -12 -52 -32 -78 -46 -27 -13 -54 -32 -61 -42 -7 -10 -15 -15 -18
-12 -7 6 -120 -73 -163 -113 -54 -52 -105 -117 -131 -170 -14 -28 -28 -54 -32
-58 -4 -4 -7 -10 -7 -13 -1 -4 -6 -23 -13 -42 -12 -36 -24 -125 -23 -170 2
-68 14 -155 22 -158 5 -2 9 -10 9 -17 0 -8 6 -20 13 -27 7 -7 20 -24 28 -38 9
-14 38 -37 64 -50 77 -39 76 -38 62 -228 -1 -17 1 -32 5 -32 5 0 8 -9 8 -20 0
-12 8 -35 17 -53 9 -18 18 -34 18 -37 2 -6 20 -48 56 -128 16 -34 31 -74 33
-89 8 -39 52 -124 83 -158 53 -57 151 -136 172 -138 12 -1 21 -5 21 -9 0 -4 7
-8 15 -8 9 0 27 -8 42 -17 14 -10 32 -19 40 -20 26 -6 39 -9 78 -22 22 -8 45
-16 50 -20 6 -3 18 -6 28 -7 9 -1 18 -2 20 -4 1 -1 29 -7 62 -14 57 -13 446
-14 535 -2 19 3 53 6 75 7 22 1 48 6 57 11 9 4 19 4 22 0 6 -11 181 -3 181 8
0 1 8 3 18 5 88 17 187 71 172 95 -3 6 0 7 8 4 10 -3 20 5 28 25 11 24 19 30
36 26 13 -2 23 1 23 6 0 6 4 8 9 5 9 -6 85 22 125 45 14 8 16 8 10 -2 -4 -7 6
-3 23 9 17 12 35 22 40 22 5 0 17 14 27 30 15 26 17 55 18 186 l1 155 46 52
c56 64 55 61 92 119 34 53 34 99 0 147 -17 24 -18 29 -5 54 8 15 12 27 9 27
-3 0 8 27 24 59 17 32 33 72 36 87 21 95 -11 193 -80 244 -29 22 -44 41 -44
54 2 51 -11 119 -26 142 -9 14 -14 28 -11 31 3 3 -9 32 -26 65 -25 46 -44 67
-93 99 -36 24 -75 61 -94 89 -18 27 -46 59 -62 71 -16 12 -29 28 -29 35 0 8
-3 14 -7 14 -5 1 -37 28 -73 61 -35 33 -75 62 -87 65 -13 4 -23 9 -23 14 0 10
-76 43 -98 43 -9 0 -21 3 -27 7 -5 3 -36 7 -69 8 -32 1 -64 6 -70 11 -7 6 -39
11 -71 11 -194 5 -255 5 -300 -1z m330 -234 c46 0 117 -25 142 -50 12 -12 38
-33 59 -45 34 -22 35 -24 18 -37 -10 -7 -29 -13 -42 -13 -28 0 -125 -91 -137
-128 -4 -14 -13 -22 -23 -20 -9 1 -27 -3 -39 -10 -13 -7 -23 -10 -23 -7 0 3
-12 -1 -27 -9 -35 -20 -86 -40 -95 -38 -5 1 -8 -3 -8 -8 0 -16 -49 0 -103 33
-32 19 -65 31 -95 33 -26 1 -65 7 -87 11 -22 5 -58 5 -80 1 -69 -15 -125 -20
-126 -11 0 4 -2 16 -4 26 -7 38 14 82 47 96 18 8 53 27 78 41 25 15 73 37 105
49 33 12 67 24 75 28 23 9 32 12 70 19 19 3 40 10 46 15 6 5 31 12 55 14 24 3
69 9 99 13 30 4 57 5 60 2 3 -3 19 -5 35 -5z"/>
</g>
</svg>
